<svg xmlns="http://www.w3.org/2000/svg" viewBox="0 0 69.18 60.24"><defs><style>.cls-1,.cls-2{fill:none;stroke-linecap:round;stroke-linejoin:round;stroke-width:2.5px;}.cls-1{stroke:#09263c;}.cls-2{stroke:#ff5b74;}</style></defs><g id="Layer_2" data-name="Layer 2"><g id="bg_omages" data-name="bg omages"><g id="bbaf8109-9f13-4292-93a5-f64c8837a5fa"><g id="b9e0ef10-b483-48bf-b18a-b0ec52bb02dd"><g id="af07f3f1-43dd-415f-b761-1a1a448f2215"><path id="e6716fd0-2509-4d30-a63b-1791c66ae0f2" class="cls-1" d="M1.25,7a5.79,5.79,0,0,1,5.8-5.77H62.13A5.79,5.79,0,0,1,67.93,7V53.21A5.79,5.79,0,0,1,62.13,59H7.05a5.79,5.79,0,0,1-5.8-5.78h0Z"/><path id="eb8b3581-cedd-49ab-9207-e38c04cdb03e" class="cls-1" d="M1.25,15.67H67.93"/><path id="ab91f326-525b-4d15-9975-404320734df5" class="cls-1" d="M11.4,7.73a.72.72,0,1,1-.73.72h0a.73.73,0,0,1,.73-.72"/><path id="b1ed3016-cdbb-4bc9-8885-ce0e70f273e6" class="cls-1" d="M20.1,7.73a.72.72,0,1,1-.73.72h0a.73.73,0,0,1,.73-.72"/><path id="f84a1fe8-b94b-4bc6-b0f8-b650ee9658ce" class="cls-1" d="M28.79,7.73a.72.72,0,1,1-.72.73h0a.72.72,0,0,1,.72-.72"/></g></g></g><path id="Shape_106" data-name="Shape 106" class="cls-2" d="M24.53,41.47h12"/><path id="Shape_107" data-name="Shape 107" class="cls-2" d="M25.25,27.3H47.71"/><path id="Shape_108" data-name="Shape 108" class="cls-2" d="M37.07,34.39H22.89"/><path id="Shape_109" data-name="Shape 109" class="cls-2" d="M35.74,48.54A13.58,13.58,0,1,1,49.89,32.62"/><path id="Shape_110" data-name="Shape 110" class="cls-2" d="M35.61,21.43c-7.1,7.67-7,17.66.13,27.11"/><path id="Shape_111" data-name="Shape 111" class="cls-2" d="M37.34,21.43a19,19,0,0,1,5,10"/><path id="Shape_106-2" data-name="Shape 106" class="cls-2" d="M48.25,41.47h-12"/><path id="Shape_107-2" data-name="Shape 107" class="cls-2" d="M47.52,27.3H25.06"/><path id="Shape_108-2" data-name="Shape 108" class="cls-2" d="M35.71,34.39H49.89"/><path id="Shape_109-2" data-name="Shape 109" class="cls-2" d="M37,48.54A13.58,13.58,0,1,0,22.89,32.62"/><path id="Shape_110-2" data-name="Shape 110" class="cls-2" d="M37.16,21.43c7.1,7.67,7,17.66-.13,27.11"/><path id="Shape_111-2" data-name="Shape 111" class="cls-2" d="M35.43,21.43a19,19,0,0,0-5,10"/></g></g></svg>