<svg xmlns="http://www.w3.org/2000/svg" viewBox="0 0 68.98 66.13"><defs><style>.cls-1,.cls-2{fill:none;stroke-linecap:round;stroke-linejoin:round;stroke-width:2.5px;}.cls-1{stroke:#09263c;}.cls-2{stroke:#008ecf;}</style></defs><g id="Layer_2" data-name="Layer 2"><g id="bg_omages" data-name="bg omages"><path id="Shape_394" data-name="Shape 394" class="cls-1" d="M11,60.06a35.33,35.33,0,0,1,0-48.72,32.42,32.42,0,0,1,47,0,35.34,35.34,0,0,1,0,48.72,15.53,15.53,0,0,1-22.49,0L23.25,47.35a2.83,2.83,0,0,0-4,.1,3.08,3.08,0,0,0-.09,4.13,6.15,6.15,0,0,1,0,8.48A5.64,5.64,0,0,1,11,60.06Z"/><path id="Shape_395" data-name="Shape 395" class="cls-2" d="M49.81,24.05a4.22,4.22,0,0,1-4.72,1,4.55,4.55,0,0,1,0-8.3,4.2,4.2,0,0,1,4.72,1A4.61,4.61,0,0,1,49.81,24.05Z"/><path id="Oval_28" data-name="Oval 28" class="cls-2" d="M54.72,38.69a3,3,0,1,0-2.89-3A2.94,2.94,0,0,0,54.72,38.69Z"/><path id="Shape_396" data-name="Shape 396" class="cls-2" d="M42.66,54.76a6.17,6.17,0,0,1-1.25-6.53,5.71,5.71,0,0,1,10.68,0,6.15,6.15,0,0,1-1.25,6.53,5.64,5.64,0,0,1-8.18,0Z"/><path id="Shape_397" data-name="Shape 397" class="cls-2" d="M32.44,14.51a4.61,4.61,0,0,1,1,4.9,4.28,4.28,0,0,1-8,0,4.63,4.63,0,0,1,.95-4.9,4.22,4.22,0,0,1,6.12,0Z"/></g></g></svg>