<svg xmlns="http://www.w3.org/2000/svg" viewBox="0 0 68.54 69.11"><defs><style>.cls-1,.cls-2{fill:none;stroke-linecap:round;stroke-linejoin:round;stroke-width:2.5px;}.cls-1{stroke:#09263c;}.cls-2{stroke:#ff5b74;}</style></defs><g id="Layer_2" data-name="Layer 2"><g id="bg_omages" data-name="bg omages"><g id="Layer_2-2" data-name="Layer 2"><g id="Layer_1-2" data-name="Layer 1-2"><path id="Shape_535" data-name="Shape 535" class="cls-1" d="M24.24,67.86H4.14A2.89,2.89,0,0,1,1.25,65V4.14A2.89,2.89,0,0,1,4.14,1.25H42.31a2.84,2.84,0,0,1,2,.89L55,12.87a2.89,2.89,0,0,1,.84,2v9.54"/><path id="Shape_536" data-name="Shape 536" class="cls-2" d="M9.88,25.2,13,28.33a1.42,1.42,0,0,0,2.19-.18l6.19-8.74"/><path id="Shape_537" data-name="Shape 537" class="cls-1" d="M30,24.41H41.47"/><path id="Shape_538" data-name="Shape 538" class="cls-2" d="M9.88,39.71,13,42.84a1.45,1.45,0,0,0,1.13.43,1.49,1.49,0,0,0,1.06-.67l6.19-8.67"/><path id="Shape_539" data-name="Shape 539" class="cls-1" d="M30,38.89H41.47"/><path id="Shape_540" data-name="Shape 540" class="cls-2" d="M65.54,43.57,43.62,65.73,32.86,67.85,35,57,56.92,34.89a6.06,6.06,0,0,1,8.55,0l0,0h0a6.17,6.17,0,0,1,0,8.68Z"/></g></g></g></g></svg>