<svg xmlns="http://www.w3.org/2000/svg" viewBox="0 0 68.23 59.48"><defs><style>.cls-1,.cls-2{fill:none;stroke-linecap:round;stroke-linejoin:round;stroke-width:2.5px;}.cls-1{stroke:#09263c;}.cls-2{stroke:#fdbb18;}</style></defs><g id="Layer_2" data-name="Layer 2"><g id="bg_omages" data-name="bg omages"><g id="bbaf8109-9f13-4292-93a5-f64c8837a5fa"><g id="b9e0ef10-b483-48bf-b18a-b0ec52bb02dd"><g id="af07f3f1-43dd-415f-b761-1a1a448f2215"><path id="e6716fd0-2509-4d30-a63b-1791c66ae0f2" class="cls-1" d="M1.25,6.94A5.71,5.71,0,0,1,7,1.25H61.26A5.71,5.71,0,0,1,67,6.94V52.53a5.71,5.71,0,0,1-5.72,5.7H7a5.71,5.71,0,0,1-5.72-5.7h0Z"/><path id="eb8b3581-cedd-49ab-9207-e38c04cdb03e" class="cls-1" d="M1.25,15.48H67"/><path id="ab91f326-525b-4d15-9975-404320734df5" class="cls-1" d="M11.26,7.64a.72.72,0,1,1-.72.71h0a.71.71,0,0,1,.72-.71"/><path id="b1ed3016-cdbb-4bc9-8885-ce0e70f273e6" class="cls-1" d="M19.83,7.64a.72.72,0,1,1-.72.71h0a.71.71,0,0,1,.72-.71"/><path id="f84a1fe8-b94b-4bc6-b0f8-b650ee9658ce" class="cls-1" d="M28.4,7.64a.72.72,0,1,1-.71.72h0a.71.71,0,0,1,.71-.71"/><path id="e0e7afc8-1519-467b-8563-b00a6691a36c" class="cls-2" d="M17.06,30l8.41,8.38-8.41,8.39"/><path id="e12b7c7d-b71c-4254-b5ba-81eae78d8321" class="cls-2" d="M37.24,40H50.66"/></g></g></g></g></g></svg>