<svg xmlns="http://www.w3.org/2000/svg" viewBox="0 0 271.06 98.8"><defs><style>.cls-1{fill:#bfcfff;}</style></defs><g id="Layer_2" data-name="Layer 2"><g id="bg_omages" data-name="bg omages"><path class="cls-1" d="M210,0h43.68a21.84,21.84,0,0,1-21.84,21.84A21.84,21.84,0,0,1,210,0Z"/><path class="cls-1" d="M59.49,65.12,93.17,98.8h-74L52.84,65.12A4.71,4.71,0,0,1,59.49,65.12Z"/><path class="cls-1" d="M0,28.26A15.6,15.6,0,0,1,15.91,12.35a15.8,15.8,0,0,1,15.26,15.9V38.81a4.71,4.71,0,0,1-4.71,4.71H15.9A15.8,15.8,0,0,1,0,28.26Z"/><path class="cls-1" d="M244.4,85.47h26.66a13.33,13.33,0,1,1-26.66,0Z"/><path class="cls-1" d="M209.7,45.87l-3.23,5.59-3.23,5.59L200,51.46l-3.23-5.59H209.7m4.07-2.35H192.72L198,52.63l5.26,9.12,5.27-9.12,5.26-9.11Z"/><path class="cls-1" d="M155,68.22a10.29,10.29,0,1,1-10.29,10.29A10.31,10.31,0,0,1,155,68.22m0-2.35a12.65,12.65,0,1,0,12.65,12.64A12.64,12.64,0,0,0,155,65.87Z"/><rect class="cls-1" x="99.39" y="39.4" width="2.35" height="20"/><rect class="cls-1" x="99.39" y="39.4" width="2.35" height="20" transform="translate(51.16 149.97) rotate(-90)"/></g></g></svg>